<?xml version="1.0" encoding="utf-8"?>
<!-- Generator: Adobe Illustrator 25.0.1, SVG Export Plug-In . SVG Version: 6.00 Build 0)  -->
<svg version="1.0" id="Layer_1" xmlns="http://www.w3.org/2000/svg" xmlns:xlink="http://www.w3.org/1999/xlink" x="0px" y="0px"
	 viewBox="0 0 857 524" style="enable-background:new 0 0 857 524;" xml:space="preserve">
<style type="text/css">
	.st0{fill:#3B79CC;}
	.st1{fill:none;}
</style>
<path class="st0" d="M656.6,288.9v-0.3c-0.3-22,17.2-40.1,39.2-40.4c0,0,0,0,0,0h1.2c21.8-0.4,39.8,16.9,40.2,38.8
	c0,0.4,0,0.9,0,1.3v0.3c0,22-16.9,40.4-40.4,40.4S656.6,310.9,656.6,288.9z M717,289.1v-0.3c0.1-11-8.8-20.1-19.9-20.1
	c-0.1,0-0.3,0-0.4,0c-12.2,0-20,9.1-20,19.8v0.3c-0.1,11,8.8,20.1,19.9,20.1c0.1,0,0.3,0,0.4,0C709.3,308.9,717,299.8,717,289.1z
	 M707.7,288.9v-0.1c0-6-4.8-10.8-10.7-10.9c-0.1,0-0.2,0-0.3,0c-5.8-0.2-10.5,4.4-10.7,10.1c0,0,0,0,0,0c0,0.2,0,0.4,0,0.6v0.1
	c0,6,4.7,10.8,10.7,10.9c0.1,0,0.2,0,0.3,0c5.8,0.2,10.5-4.4,10.7-10.1c0,0,0,0,0,0C707.7,289.3,707.7,289.1,707.7,288.9z
	 M537.7,254.3h24.8v9.7c4.5-5.9,11-11.3,21-11.3c9.4,0,16.5,4.2,20.3,11.4c6.1-7.1,13.3-11.4,23.6-11.4c14.9,0,24,9.4,24,25.8v46.3
	h-24.7v-38.2c0-7.7-3.8-11.7-9.7-11.7s-10.1,4.1-10.1,11.7V325H582v-38.4c0-7.7-3.8-11.7-9.7-11.7s-10,4.1-10,11.7V325h-24.8v-70.7
	H537.7z M460.5,300.5v-46.2h24.8v38.2c0,7.7,4.1,11.9,10,11.9s10.3-4.2,10.3-11.9v-38.2h24.8V325h-24.7v-9.7
	c-4.7,7-12.6,11.2-21.1,11.3C469.5,326.6,460.6,316.6,460.5,300.5L460.5,300.5z M375.4,311.4l14-16.8c8.3,7,18.7,10.9,29.5,11
	c6.8,0,10.4-2.3,10.4-6.2V299c0-3.8-3-5.9-15.3-8.7c-19.4-4.5-34.5-10-34.5-28.7v-0.3c0-16.9,13.5-29.2,35.3-29.2
	c15.5,0,27.7,4.2,37.5,12.2l-12.6,17.8c-7.4-5.5-16.3-8.7-25.5-9c-6.1,0-9.1,2.6-9.1,5.9v0.3c0,4.2,3.2,5.9,15.8,8.8
	c21,4.6,34,11.3,34,28.5v0.3c0,18.7-14.8,29.8-36.9,29.8C402.4,326.9,387.3,321.4,375.4,311.4L375.4,311.4z M303.5,306.4L339,273
	h-35.5v-18.7h65.4v18.5l-35.8,33.6h35.6V325h-65.4v-18.6H303.5z M230.8,306.4l35.5-33.6h-35.5v-18.5h65.4v18.5l-35.8,33.6h35.6V325
	h-65.4v-18.6H230.8z M153.7,300.5v-46.2h24.8v38.2c0,7.7,4.1,11.9,10,11.9c5.8,0,10.3-4.2,10.3-11.9v-38.2h24.8V325h-24.8v-9.7
	c-4.8,7-12.7,11.3-21.2,11.3C162.6,326.6,153.6,316.6,153.7,300.5L153.7,300.5z M66.5,233.6h46.8c11.4,0,19.5,2.9,24.9,8.3
	c3.9,3.9,5.9,9.3,5.8,14.8v0.3c0,10.6-5.9,16.8-14,20.4c11,3.6,18.1,10,18.1,22.3v0.3c0,15.6-12.7,25.2-34.5,25.2H66.5V233.6z
	 M107,270c7.7,0,12-2.6,12-8v-0.3c0-4.9-3.9-7.8-11.4-7.8H91.1V270H107z M110.7,304.6c7.7,0,12.2-3,12.2-8.4v-0.3
	c0-4.9-3.9-8.3-12.3-8.3H91.1v16.8h19.6V304.6z"/>
<path class="st0" d="M706.5,221.8c26.1,0,57,23,57,56.8c0,5.1-4.1,9.3-9.2,9.3c0,0,0,0-0.1,0h-0.2c-3.4-0.1-6.3-2.7-6.7-6.1
	c-2.9-22.9-20.3-41.1-44.3-43.9c-3.4-0.4-6-3.3-6.1-6.8v-0.1C697.2,225.8,701.4,221.8,706.5,221.8L706.5,221.8z M707.1,195
	c-5.1,0-9.3,4.1-9.3,9.3c0,0,0,0,0,0v0.1c0.1,3.4,2.8,6.2,6.2,6.4c37.7,2.7,67.7,32.6,70.7,70.2c0.2,3.4,3,6,6.4,6.1h0.1
	c5.1,0,9.2-4.2,9.3-9.3C790.4,228.7,746.2,195,707.1,195"/>
<rect x="48" y="172" class="st1" width="761" height="180"/>
</svg>
