<svg width="131" height="39" viewBox="0 0 131 39" fill="none" xmlns="http://www.w3.org/2000/svg">
<path d="M24.5675 0C24.6467 0.117009 24.7656 0.0780062 24.8845 0.117009C24.7656 0.156012 24.6863 0.195016 24.5675 0.195016C24.4882 0.195016 24.3693 0.234019 24.409 0.117009C24.3693 0.0780062 24.4882 0.0390031 24.5675 0ZM0 14.8212C0.356624 13.7681 0.435874 12.676 0.792498 11.6619C2.77374 5.69445 8.28161 1.48212 14.7801 1.05308C20.9616 0.62405 27.0242 4.09533 29.7583 9.59476C29.8376 9.71177 29.8772 9.86779 29.9168 10.0238C29.8772 10.1018 29.7979 10.1408 29.7187 10.1798C27.4997 10.2968 25.4392 11.1939 23.2995 11.7399C22.7447 11.8959 22.3485 11.7789 21.9522 11.4279C19.2973 9.16573 16.6425 6.90355 14.0272 4.64137C13.8291 4.44635 13.5913 4.25134 13.314 4.17333C13.1555 4.13433 12.997 4.09533 12.8781 4.25134C12.7592 4.40735 12.8781 4.52436 12.9574 4.64137C13.2743 5.0704 13.5913 5.46043 13.9083 5.88947C15.0575 7.37159 16.167 8.89271 17.3161 10.3748C17.8312 10.9989 18.069 11.7399 18.3463 12.481C18.5048 12.91 18.3463 13.144 17.9105 13.2611C17.1576 13.4951 16.4443 13.6901 15.6915 13.8851C11.1346 15.1722 6.73624 16.8883 2.219 18.3315C1.585 18.4875 0.950998 18.7995 0.23775 18.7995C0.0792499 18.6435 0.277374 18.3315 0.0396249 18.1754L0.0396249 17.2784C0.1585 16.7713 0.1585 16.2253 0.0396249 15.7183C0 15.4062 0 15.1332 0 14.8212Z" fill="white"/>
<path d="M0 15.7184C0.198125 16.2255 0.198125 16.7715 0 17.2786L0 15.7184ZM30.5508 11.4281C31.8188 14.8994 31.7792 18.4097 30.4716 21.8419C28.0148 28.3944 21.6748 32.4118 14.582 31.9827C7.84573 31.5537 1.902 26.5613 0.435874 20.0868C0.396249 19.9308 0.396249 19.7748 0.396249 19.6188C0.594374 19.3457 0.911373 19.3067 1.22837 19.2287C5.38899 18.2926 9.54961 17.2786 13.7102 16.3425C14.9782 16.0305 16.2462 15.6404 17.5142 15.2894C17.8312 15.2114 18.1086 15.1334 18.4256 15.0554C18.9011 14.9384 19.1785 15.0944 19.2973 15.5624C19.4955 16.3425 19.6143 17.0836 19.5351 17.8636C19.2973 20.0868 19.1388 22.31 18.9407 24.5331C18.9011 24.7672 18.7426 25.1572 19.1388 25.2352C19.4558 25.3132 19.5747 24.9232 19.6936 24.6892C20.3276 22.7 20.9616 20.6718 21.5956 18.6827C22.0315 17.2396 22.5466 15.7964 22.9825 14.3533C23.141 13.8853 23.4976 13.6513 23.9335 13.5343C25.2411 13.1442 26.5487 12.7932 27.8563 12.4032C28.6488 12.1692 29.4413 11.9741 30.1149 11.5451C30.1942 11.4281 30.3527 11.3501 30.5508 11.4281ZM36.8908 20.1258L36.8908 12.1302C36.8908 10.492 37.6833 9.67296 39.3475 9.67296L48.7387 9.67296C49.2142 9.67296 49.333 9.78997 49.2142 10.219C49.016 10.9991 48.7387 11.7401 48.382 12.4812C48.1839 12.8322 47.9462 12.9492 47.5499 12.9492C45.4498 12.9492 43.3497 12.9492 41.2495 12.9102C40.6948 12.9102 40.5759 13.0662 40.5759 13.6123C40.6155 14.7044 40.6155 15.8355 40.5759 16.9275C40.5759 17.4346 40.6552 17.5906 41.2099 17.5906C43.31 17.5516 45.4102 17.5906 47.5103 17.5516C47.9462 17.5516 48.1047 17.6296 48.065 18.0976C48.0254 18.8387 48.0254 19.6188 48.065 20.3598C48.065 20.7888 47.9462 20.8669 47.5499 20.8669H41.2099C40.774 20.8669 40.6155 20.9449 40.6155 21.4129C40.6552 23.207 40.6552 25.0012 40.6155 26.8343C40.6155 27.3024 40.774 27.3804 41.2099 27.3804C43.7063 27.3804 46.2027 27.3804 48.699 27.3414C49.333 27.3414 49.3727 27.5364 49.2538 28.0434C49.0557 28.8235 48.7783 29.5645 48.382 30.2666C48.2235 30.5396 48.065 30.6176 47.748 30.6176L39.0702 30.6176C37.8022 30.6176 36.9304 29.6816 36.9304 28.3944C36.8908 25.5862 36.8908 22.856 36.8908 20.1258ZM50.3237 17.5516L54.1276 17.5516C54.4446 17.5516 54.6428 17.7076 54.8409 17.9416C55.673 18.9947 56.5448 20.0088 57.4165 21.1009C57.6939 21.4519 57.8128 21.4519 58.0901 21.1009C58.9619 20.0478 59.8336 18.9947 60.7054 17.9026C60.9035 17.6686 61.1016 17.5516 61.4186 17.5516H64.4301C64.4301 17.8246 64.1924 17.9806 64.0735 18.1366C62.6866 19.7748 61.2998 21.4519 59.8733 23.09C59.5563 23.4411 59.5166 23.6751 59.8733 24.0651C61.5375 26.0153 63.1621 28.0434 64.7868 30.0326C64.9056 30.1886 65.0245 30.3446 65.2226 30.6176H61.1016C60.8243 30.6176 60.745 30.3836 60.6261 30.2276C59.6355 29.0575 58.6449 27.8874 57.6939 26.6783C57.3373 26.2103 57.1788 26.3273 56.8618 26.7173C55.9108 27.8874 54.9201 29.0575 53.9295 30.2276C53.8106 30.3836 53.6918 30.5786 53.4144 30.5786L50.1255 30.5786C50.9577 29.5645 51.7501 28.6285 52.503 27.6924C53.3748 26.6003 54.2861 25.5472 55.1975 24.4551C55.4749 24.1041 55.4353 23.9091 55.1975 23.5971C53.6521 21.7639 52.1464 19.9308 50.6407 18.0976C50.5218 17.9416 50.3237 17.8246 50.3237 17.5516ZM111.822 24.0651V18.0976C111.822 17.6686 111.94 17.5516 112.376 17.5516C113.208 17.5906 114.041 17.5906 114.873 17.5516C115.229 17.5516 115.427 17.5906 115.427 18.0196L115.427 30.1106C115.427 30.5006 115.309 30.5786 114.952 30.5786C114.08 30.5396 113.208 30.5396 112.297 30.5786C111.901 30.5786 111.822 30.4226 111.822 30.1106L111.822 24.0651ZM113.605 14.8214C112.416 14.8214 111.425 13.8853 111.425 12.7542C111.425 11.5841 112.376 10.648 113.565 10.648C114.754 10.648 115.705 11.5841 115.744 12.7542C115.784 13.8853 114.793 14.8214 113.605 14.8214ZM29.1243 27.8484V27.9264C29.0054 28.1214 28.8073 28.1994 28.5696 28.2384C28.6092 27.9264 28.8469 27.8874 29.1243 27.8484ZM28.3318 28.7455H28.2526C28.2129 28.4725 28.2526 28.2774 28.6092 28.3164C28.5299 28.5115 28.5299 28.7065 28.3318 28.7455ZM78.9328 21.0229C77.7441 18.1366 74.5741 16.4985 71.3645 17.0836C69.8191 17.3566 68.2737 17.6296 66.7284 17.5126C66.0547 17.4736 65.8962 17.6686 65.8962 18.3317C65.9359 25.1572 65.8962 31.9437 65.8962 38.7693H66.4114C67.2435 38.4573 68.1152 38.2232 68.9077 37.7942C69.304 37.5602 69.5021 37.3262 69.4625 36.8191C69.4229 35.064 69.4625 33.3088 69.4229 31.5537C69.4229 31.0467 69.5417 30.9687 70.0569 31.0467C70.9286 31.2027 71.84 31.2027 72.7514 31.1247C79.2102 30.4616 80.5178 24.8452 78.9328 21.0229ZM75.2874 26.5223C74.3364 28.3164 71.6022 29.2525 69.7002 28.3944C69.3832 28.2774 69.4625 28.0434 69.4625 27.8484L69.4625 24.1431C69.4625 22.934 69.5021 21.7249 69.4625 20.5158C69.4625 20.1258 69.5814 19.9698 69.938 19.8918C70.7305 19.7358 71.4834 19.5407 72.2759 19.6578C74.0194 19.8528 75.2477 20.9059 75.644 22.583C76.0402 23.9481 75.961 25.2742 75.2874 26.5223ZM109.087 9.75097C109.087 9.32193 108.929 9.28293 108.572 9.36094C107.661 9.55595 106.789 9.86798 105.997 10.336C105.64 10.531 105.482 10.765 105.482 11.1941C105.521 13.0662 105.482 14.9384 105.521 16.7715C105.521 17.2786 105.442 17.3956 104.927 17.2786C102.747 16.7325 100.608 16.8885 98.7057 18.1366C96.0904 19.8528 95.2187 22.349 95.5753 25.3132C96.0112 29.0185 99.1019 31.4757 102.866 31.0857C103.936 30.9687 104.927 30.5786 105.997 30.1106V30.6176C105.917 31.2417 106.155 31.2807 106.67 31.1247C107.384 30.8906 108.057 30.6176 108.731 30.2276C109.008 30.0716 109.127 29.8766 109.127 29.5645C109.087 22.973 109.087 16.3815 109.087 9.75097ZM105.323 27.6534C104.174 28.1994 102.985 28.5505 101.678 28.2774C100.489 28.0044 99.7359 27.2634 99.3793 26.1323C98.9434 24.7282 98.9831 23.324 99.5774 21.9589C100.568 19.6968 103.064 19.1117 105.204 20.0088C105.482 20.1258 105.482 20.3208 105.482 20.5938L105.482 27.1073C105.521 27.3024 105.561 27.5364 105.323 27.6534ZM131 17.7076C131 17.3566 130.881 17.2396 130.564 17.2396L128.305 17.2396C128.147 17.2396 127.909 17.2006 127.909 17.3956C127.87 18.0976 127.434 17.7076 127.196 17.6296C125.453 16.9665 123.749 16.8105 121.966 17.4736C118.994 18.5657 117.171 21.4519 117.369 24.8452C117.528 27.3804 118.597 29.4865 121.094 30.5396C123.432 31.5147 125.809 31.6707 127.909 29.7206V30.9296C127.909 31.2417 128.028 31.2807 128.305 31.2027C129.138 30.9687 129.93 30.6566 130.643 30.1886C130.881 30.0326 130.96 29.8766 130.96 29.6035C131 25.6252 131 21.6469 131 17.7076ZM127.236 27.6144C126.126 28.2384 124.937 28.5895 123.63 28.2774C122.362 28.0044 121.569 27.1854 121.213 26.0153C120.777 24.5331 120.896 23.09 121.569 21.7249C122.52 19.8528 124.779 18.9557 127.156 20.2818C127.434 20.4378 127.394 20.6328 127.394 20.8278L127.394 27.1464C127.434 27.3024 127.473 27.4974 127.236 27.6144ZM94.0696 22.349C93.9111 20.3208 92.9997 18.7217 91.1373 17.7856C88.7202 16.5765 86.2635 16.7325 83.9652 18.0976C81.6273 19.5017 80.6763 21.7249 80.7952 24.3381C80.9537 28.2384 83.569 30.8126 87.4918 31.1247C89.275 31.2417 90.9788 30.6956 92.6431 30.1106C93.6337 29.7596 93.6337 29.7596 93.6337 28.7065V27.4584C93.6337 26.6783 93.6337 26.6783 92.9204 27.0293C91.3751 27.7704 89.7901 28.4335 88.007 28.3164C86.1446 28.2384 84.7973 27.1463 84.4407 25.4692C84.3615 25.0012 84.4011 24.8062 84.9558 24.8452C86.3823 24.8842 87.7692 24.8452 89.1957 24.8452H93.5148C93.9507 24.8452 94.1092 24.7282 94.1092 24.2991C94.0696 23.6751 94.1488 23.012 94.0696 22.349ZM90.4637 22.895L84.4803 22.895C84.7973 20.8669 86.1842 19.7358 88.1258 19.8528C89.5523 19.9308 90.7411 21.1399 90.7807 22.544C90.7807 22.778 90.7411 22.895 90.4637 22.895Z" fill="white"/>
</svg>
