<svg width="121" height="34" viewBox="0 0 121 34" fill="none" xmlns="http://www.w3.org/2000/svg">
<g clip-path="url(#clip0_119_6802)">
<path d="M13.1044 19.2426L4.21931 19.2426L4.21931 28.5205L2.86321e-07 28.5205L0 5.62793L4.21931 5.62793L4.21931 15.2188L13.1044 15.2188L13.1044 5.62793L17.3228 5.62793L17.3228 28.5205L13.1044 28.5205L13.1044 19.2426Z" fill="white"/>
<path d="M30.8232 21.121C30.8232 23.0276 29.2563 24.579 27.3333 24.579C25.4098 24.579 23.844 23.0276 23.844 21.121L23.844 11.3159L19.8486 11.3159L19.8486 21.121C19.8486 25.2117 23.2063 28.5392 27.3333 28.5392C31.4595 28.5392 34.8171 25.2117 34.8171 21.121L34.8171 11.3159L30.8232 11.3159L30.8232 21.121Z" fill="white"/>
<path d="M60.4698 12.3256C60.4698 10.3153 61.8121 9.6778 63.2817 9.6778C64.4651 9.6778 66.031 10.5705 67.0527 11.6553L69.6728 8.59377C68.3635 6.84022 65.7112 5.62793 63.5378 5.62793C59.1906 5.62793 56.0584 8.14756 56.0584 12.3256C56.0584 20.0749 65.6152 17.6185 65.6152 21.9568C65.6152 23.2947 64.3053 24.4758 62.8036 24.4758C60.4377 24.4758 59.6703 23.3277 58.584 22.1156L55.675 25.1128C57.5298 27.3773 59.8304 28.5261 62.5792 28.5261C66.7022 28.5261 70.0263 25.9746 70.0263 21.9876C70.0263 13.3773 60.4698 16.0565 60.4698 12.3256Z" fill="white"/>
<path d="M119.593 24.8635C117.228 24.8635 116.557 23.8503 116.557 22.2972L116.557 15.4228L120.232 15.4228L120.232 11.9382L116.557 11.9382L116.557 7.34375L112.499 9.14938L112.499 23.1529C112.499 26.7333 114.991 28.5395 118.41 28.5395C118.921 28.5395 119.625 28.5067 120.009 28.4128L121 24.8013C120.553 24.8319 120.041 24.8635 119.593 24.8635Z" fill="white"/>
<path d="M46.0524 11.4308C44.0706 11.4308 42.6873 12.001 41.3514 13.3008L41.3514 5.76465L37.3433 5.76465L37.3433 19.7314C37.3433 24.959 41.1561 28.5394 45.4403 28.5394C50.2027 28.5394 54.3754 24.8953 54.3754 19.9854C54.3754 15.1377 50.5276 11.4308 46.0524 11.4308ZM46.0275 24.5408C43.5166 24.5408 41.4814 22.5233 41.4814 20.0345C41.4814 17.5458 43.5166 15.5283 46.0275 15.5283C48.538 15.5282 50.5734 17.5458 50.5734 20.0345C50.5734 22.5233 48.538 24.5408 46.0275 24.5408Z" fill="white"/>
<path d="M89.567 19.779C89.567 14.8691 85.3943 11.2251 80.632 11.2251C76.3478 11.2251 72.5349 14.8054 72.5349 20.0331L72.5349 33.9998L76.543 33.9998L76.543 26.4637C77.879 27.7635 79.2622 28.3337 81.244 28.3337C85.7193 28.3337 89.567 24.6268 89.567 19.779ZM85.765 19.73C85.765 22.2186 83.7297 24.2362 81.2191 24.2362C78.7082 24.2362 76.673 22.2186 76.673 19.73C76.673 17.2412 78.7082 15.2237 81.2191 15.2237C83.7297 15.2237 85.765 17.2412 85.765 19.73Z" fill="white"/>
<path d="M102.518 11.0328L102.518 7.04194C103.569 6.54982 104.306 5.49597 104.306 4.27289L104.306 4.18067C104.306 2.49286 102.912 1.11189 101.21 1.11189L101.117 1.11189C99.4139 1.11189 98.0207 2.49286 98.0207 4.18067L98.0207 4.27289C98.0207 5.49597 98.7572 6.54997 99.808 7.04202L99.808 11.0329C98.2433 11.2725 96.8137 11.9122 95.6341 12.8536L84.5799 4.32969C84.6526 4.0521 84.7037 3.7661 84.704 3.46599C84.7065 1.55423 83.1451 0.00247478 81.2164 2.7218e-06C79.2877 -0.00238788 77.7222 1.54543 77.7197 3.45719C77.7174 5.36895 79.2788 6.9207 81.2075 6.9231C81.8361 6.92387 82.4178 6.74692 82.9277 6.45945L93.8017 14.8446C92.8769 16.2283 92.3353 17.8858 92.3353 19.67C92.3353 21.5381 92.9306 23.2658 93.9367 24.687L90.6297 27.9651C90.3683 27.8874 90.0969 27.833 89.8098 27.833C88.2251 27.833 86.9402 29.1065 86.9402 30.6775C86.9402 32.2485 88.2251 33.522 89.8098 33.522C91.3947 33.522 92.6794 32.2485 92.6794 30.6775C92.6794 30.393 92.6246 30.124 92.5461 29.8648L95.8173 26.6223C97.3021 27.7459 99.1511 28.4208 101.163 28.4208C106.039 28.4208 109.991 24.5029 109.991 19.67C109.991 15.295 106.749 11.6805 102.518 11.0328ZM101.163 24.1564C98.6637 24.1564 96.6371 22.1478 96.6371 19.67C96.6371 17.1922 98.6637 15.1836 101.163 15.1836C103.663 15.1836 105.689 17.1922 105.689 19.67C105.689 22.1478 103.663 24.1564 101.163 24.1564Z" fill="white"/>
</g>
<defs>
<clipPath id="clip0_119_6802">
<rect width="121" height="34" fill="white"/>
</clipPath>
</defs>
</svg>
